<svg width="24.000000" height="24.000000" viewBox="0 0 24 24" fill="none" xmlns="http://www.w3.org/2000/svg" xmlns:xlink="http://www.w3.org/1999/xlink">
	<desc>
			Created with Pixso.
	</desc>
	<defs>
		<clipPath id="clip703_129">
			<rect id="close" rx="-0.500000" width="23.000000" height="23.000000" transform="translate(0.500000 0.500000)" fill="white" fill-opacity="0"/>
		</clipPath>
	</defs>
	<g opacity="0.500000">
		<g clip-path="url(#clip703_129)">
			<path id="Vector" d="M18.29 5.7C17.9 5.32 17.27 5.32 16.88 5.7L11.99 10.59L7.1 5.7C6.71 5.31 6.08 5.31 5.69 5.7C5.3 6.09 5.3 6.72 5.69 7.11L10.58 12L5.69 16.89C5.3 17.28 5.3 17.91 5.69 18.29C6.08 18.69 6.71 18.69 7.1 18.29L11.99 13.41L16.88 18.29C17.27 18.69 17.9 18.69 18.29 18.29C18.68 17.91 18.68 17.28 18.29 16.89L13.4 12L18.29 7.11C18.67 6.73 18.67 6.09 18.29 5.7Z" fill="#000000" fill-opacity="1.000000" fill-rule="nonzero"/>
		</g>
	</g>
</svg>
